{"title":"The.Super.2011.DvDScr.XviD.AC3-XtremE","uid":6330342,"size":1471245665,"categoryP":"video","categoryS":"movies","magnet":"?xt=urn:btih:7c806dfd5af7dc180d3b0f62d02d0c9a3eafcb6e&amp;dn=The.Super.2011.DvDScr.XviD.AC3-XtremE&amp;tr=udp%3A%2F%2Ftracker.openbittorrent.com%3A80&amp;tr=udp%3A%2F%2Fopen.demonii.com%3A1337&amp;tr=udp%3A%2F%2Ftracker.coppersurfer.tk%3A6969&amp;tr=udp%3A%2F%2Fexodus.desync.com%3A6969","seeders":0,"leechers":0,"uploader":"crazy-torrent","files":2,"time":1303258645,"description":" &lt;a href=&quot;http://www.scenespeeds.com/&quot; rel=&quot;nofollow&quot; target=&quot;_NEW&quot;&gt;http://www.scenespeeds.com/&lt;/a&gt;\n\nIMDB Link http://www.imdb.com/title/tt1640569/\nComplete name : The.Super.2011.DvDScr.XviD.AC3-XtremE\nFormat : AVI\nFormat/Info : Audio Video Interleave\nFile size : 1.37 GiB\nDuration : 1h 37mn\nOverall bit rate : 2 006 Kbps\nWriting library : VirtualDub-MPEG2 build 24586/release\nVideo\nID : 0\nFormat : MPEG-4 Visual\nFormat profile : Advanced Simple@L5\nFormat settings, BVOP : 2\nFormat settings, QPel : No\nFormat settings, GMC : No warppoints\nFormat settings, Matrix : Default (H.263)\nMuxing mode : Packed bitstream\nCodec ID : XVID\nCodec ID/Hint : XviD\nDuration : 1h 37mn\nBit rate : 1 740 Kbps\nWidth : 720 pixels\nHeight : 304 pixels\nDisplay aspect ratio : 2.35:1\nFrame rate : 23.976 fps\nColor space : YUV\nChroma subsampling : 4:2:0\nBit depth : 8 bits\nScan type : Progressive\nCompression mode : Lossy\nBits/(Pixel*Frame) : 0.332\nStream size : 1.19 GiB (87%)\nWriting library : XviD 1.2.1 (UTC 2008-12-04)\nAudio\nID : 1\nFormat : AC-3\nFormat/Info : Audio Coding 3\nMode extension : CM (complete main)\nCodec ID : 2000\nDuration : 1h 37mn\nBit rate mode : Constant\nBit rate : 256 Kbps\nChannel(s) : 2 channels\nChannel positions : Front: L R\nSampling rate : 48.0 KHz\nBit depth : 16 bits\nCompression mode : Lossy\nStream size : 179 MiB (13%)\nAlignment : Aligned on interleaves\nInterleave, duration : 42 ms (1.00 video frame)\n\n\nPlot\nGeorge Rossi, who immigrated to the US and served in the Vietnam war, is now a Superintendent of a Queens apartment building. He finds himself quickly slipping into a depraved world which is fueled by the tenants of the building.\n\n &lt;a href=&quot;\nhttp://www.scenespeeds.com/&quot; rel=&quot;nofollow&quot; target=&quot;_NEW&quot;&gt;\nhttp://www.scenespeeds.com/&lt;/a&gt;\n &lt;a href=&quot;\nhttp://image.bayimg.com/jahkcaadk.jpg&quot; rel=&quot;nofollow&quot; target=&quot;_NEW&quot;&gt;\nhttp://image.bayimg.com/jahkcaadk.jpg&lt;/a&gt;","torrent":{"xt":"urn:btih:7c806dfd5af7dc180d3b0f62d02d0c9a3eafcb6e","amp;dn":"The.Super.2011.DvDScr.XviD.AC3-XtremE","amp;tr":["udp%3A%2F%2Ftracker.openbittorrent.com%3A80","udp%3A%2F%2Fopen.demonii.com%3A1337","udp%3A%2F%2Ftracker.coppersurfer.tk%3A6969","udp%3A%2F%2Fexodus.desync.com%3A6969"],"infoHash":"7c806dfd5af7dc180d3b0f62d02d0c9a3eafcb6e","infoHashBuffer":{"type":"Buffer","data":[124,128,109,253,90,247,220,24,13,59,15,98,208,45,12,154,62,175,203,110]},"announce":[],"urlList":[]}}